# xmcd
#
# Track frame offsets:
# 150
# 17221
# 30098
# 41723
# 53293
# 66180
# 80314
# 99583
# 115610
# 129356
# 144605
# 156215
# 173092
# 188929
#
# Disc length: 2701 seconds
#
#
# Revision: 0
# Processed by: cddbd v1.5.1PL0 Copyright (c) Steve Scherf et al.
# Submitted via: FreeRIP 2.91 
#
DISCID=a90a8b0e
DTITLE=Studio 99 - Tribute to Cat Stevens
DYEAR=1900
DGENRE=Country
TTITLE0=Father And Son
TTITLE1=Moonshadow
TTITLE2=I Love My Dog
TTITLE3=Another Saturday Night
TTITLE4=Matthew And Son
TTITLE5=Here Comes My Baby
TTITLE6=Lady D'Arbanville
TTITLE7=Into White
TTITLE8=The First Cut Is The Deepest
TTITLE9=Wild World
TTITLE10=Ruby Love
TTITLE11=Where Do The Children Play
TTITLE12=Morning Has Broken
TTITLE13=Can't Keep It In
EXTD=
EXTT0=
EXTT1=
EXTT2=
EXTT3=
EXTT4=
EXTT5=
EXTT6=
EXTT7=
EXTT8=
EXTT9=
EXTT10=
EXTT11=
EXTT12=
EXTT13=
PLAYORDER=
